<?xml version="1.0" encoding="utf-8"?>
<!-- Generator: Adobe Illustrator 26.0.2, SVG Export Plug-In . SVG Version: 6.00 Build 0)  -->
<svg version="1.1" id="Layer_1" xmlns="http://www.w3.org/2000/svg" xmlns:xlink="http://www.w3.org/1999/xlink" x="0px" y="0px"
	 viewBox="0 0 718.509 450.326" style="enable-background:new 0 0 718.509 450.326;" xml:space="preserve">
<style type="text/css">
	.st0{fill:#FFFFFF;}
</style>
<g>
	<path d="M718.509,267.87V0H0v267.87h492.49l113.01,113.01V267.87H718.509z"/>
</g>
<g>
	<path class="st0" d="M174.146,82.142l-32.963,115.656h-7.24L97.741,70.71h6.669l33.153,117.942L170.907,70.71h6.479l33.344,117.942
		L243.882,70.71h6.669l-36.202,127.088h-7.24L174.146,82.142z"/>
	<path class="st0" d="M262.936,70.71h6.097v78.882c0,28.199,14.481,44.776,41.156,44.776c26.676,0,41.156-16.577,41.156-44.776
		V70.71h6.097v78.882c0,31.438-16.386,50.492-47.253,50.492c-30.867,0-47.253-19.244-47.253-50.492V70.71z"/>
	<path class="st0" d="M460.143,197.798l-4.573-14.862h-45.729l-4.573,14.862h-43.633L408.507,70.71h48.396l46.872,127.088H460.143z
		 M432.705,108.436l-12.575,40.965h25.15L432.705,108.436z"/>
	<path class="st0" d="M527.021,197.798L480.149,70.71h43.633l27.438,85.551l27.438-85.551h43.633l-46.872,127.088H527.021z"/>
</g>
<g>
	<path d="M147.491,413.628h-12.703v-1.693h27.269v1.693h-12.76v35.964h-1.807V413.628z"/>
	<path d="M184.073,411.314c10.896,0,17.897,8.582,17.897,19.478c0,10.896-7.001,19.479-17.897,19.479
		c-10.953,0-17.897-8.582-17.897-19.479C166.176,419.896,173.12,411.314,184.073,411.314z M184.073,413.007
		c-9.767,0-15.921,7.453-15.921,17.784c0,10.22,6.154,17.784,15.921,17.784c9.654,0,15.921-7.564,15.921-17.784
		C199.994,420.46,193.728,413.007,184.073,413.007z"/>
	<path d="M218.791,413.628h-12.703v-1.693h27.269v1.693h-12.76v35.964h-1.807V413.628z"/>
	<path d="M260.003,439.486h-21.002l-4.178,10.105h-2.089l15.695-37.657h2.146l15.695,37.657h-2.089L260.003,439.486z
		 M239.679,437.792h19.647l-9.824-23.769L239.679,437.792z"/>
	<path d="M272.421,411.935h1.807v35.964h18.913v1.693h-20.72V411.935z"/>
	<path d="M300.591,411.935h23.035v1.693h-21.228v15.752h20.833v1.693h-20.833v16.825h21.228v1.693h-23.035V411.935z"/>
	<path d="M370.257,439.486h-21.003l-4.178,10.105h-2.089l15.695-37.657h2.146l15.695,37.657h-2.089L370.257,439.486z
		 M349.932,437.792h19.647l-9.824-23.769L349.932,437.792z"/>
	<path d="M375.504,411.935h2.089l14.679,35.568l14.68-35.568h2.089l-15.695,37.657h-2.146L375.504,411.935z"/>
	<path d="M410.223,429.493h13.55v1.693h-13.55V429.493z"/>
	<path d="M430.433,411.935h1.807v35.964h18.914v1.693h-20.721V411.935z"/>
	<path d="M490.841,430.791c0,10.896-7.001,19.479-17.897,19.479c-3.5,0-6.605-0.903-9.202-2.428l-1.017,1.75h-2.032l1.638-2.71
		c-4.63-3.5-7.283-9.372-7.283-16.091c0-10.896,6.944-19.478,17.896-19.478c3.501,0,6.55,0.847,9.146,2.428l1.072-1.807h2.033
		l-1.638,2.767C488.188,418.201,490.841,424.073,490.841,430.791z M463.233,445.357l17.953-30.148
		c-2.314-1.411-5.081-2.202-8.243-2.202c-9.767,0-15.921,7.453-15.921,17.784C457.022,437.002,459.281,442.196,463.233,445.357z
		 M488.864,430.791c0-6.267-2.314-11.46-6.21-14.565l-18.01,30.148c2.314,1.411,5.138,2.201,8.299,2.201
		C482.598,448.575,488.864,441.011,488.864,430.791z"/>
	<path d="M498.967,442.986c2.315,2.823,6.267,5.589,11.687,5.589c8.695,0,10.896-4.968,10.896-8.524
		c0-6.098-5.477-7.735-11.065-9.315c-5.815-1.638-11.8-3.275-11.8-9.824c0-6.098,5.59-9.598,11.8-9.598
		c5.533,0,9.541,2.032,12.194,5.307l-1.411,1.299c-2.653-3.443-6.437-4.912-10.783-4.912c-5.477,0-9.823,3.275-9.823,7.904
		c0,5.081,5.081,6.493,10.444,8.018c6.041,1.75,12.421,3.669,12.421,11.122c0,4.234-2.71,10.219-12.873,10.219
		c-5.871,0-10.444-2.541-13.154-5.984L498.967,442.986z"/>
	<path d="M533.743,414.87v34.722h-1.807v-37.657h1.807l25.405,34.383v-34.383h1.807v37.657h-1.807L533.743,414.87z"/>
	<path d="M570.89,411.935h1.807v37.657h-1.807V411.935z"/>
	<path d="M584.437,414.87v34.722h-1.807v-37.657h1.807l25.406,34.383v-34.383h1.807v37.657h-1.807L584.437,414.87z"/>
	<path d="M639.085,411.314c5.702,0,10.106,2.032,13.776,5.815l-1.186,1.242c-2.937-3.331-7.565-5.364-12.591-5.364
		c-9.428,0-16.824,7.171-16.824,17.784c0,10.502,7.396,17.841,16.824,17.841c5.533,0,9.768-2.767,11.97-5.081v-10.332h-15.526
		v-1.693h17.333v12.76c-3.219,3.613-8.13,6.041-13.776,6.041c-10.444,0-18.8-7.961-18.8-19.535
		C620.285,419.218,628.641,411.314,639.085,411.314z"/>
	<path d="M661.552,411.935h23.035v1.693h-21.229v15.752h20.833v1.693h-20.833v16.825h21.229v1.693h-23.035V411.935z"/>
	<path d="M703.894,433.332h-9.033v16.26h-1.807v-37.657h12.984c6.098,0,11.122,3.783,11.122,10.671s-5.024,10.727-11.122,10.727
		l11.631,16.26h-2.315L703.894,433.332z M706.038,413.628H694.86v18.011h11.178c5.533,0,9.146-3.84,9.146-9.033
		C715.185,417.411,711.571,413.628,706.038,413.628z"/>
</g>
</svg>
